<?xml version="1.0" encoding="utf-8"?>
<!-- Generator: Adobe Illustrator 23.0.1, SVG Export Plug-In . SVG Version: 6.00 Build 0)  -->
<svg version="1.1" xmlns="http://www.w3.org/2000/svg" xmlns:xlink="http://www.w3.org/1999/xlink" x="0px" y="0px"
	 viewBox="0 0 300 300" style="enable-background:new 0 0 300 300;" xml:space="preserve">
<style type="text/css">
	.st0{display:none;}
	.st1{display:inline;}
	.st2{fill:#C85151;}
	.st3{display:inline;fill:none;}
	.st4{display:inline;fill:#4FAB5F;}
	.st5{display:inline;fill:#F1BA43;}
	.st6{display:inline;fill:#C85151;}
	.st7{clip-path:url(#SVGID_2_);}
	.st8{fill:none;}
	.st9{fill:#4FAB5F;}
	.st10{fill:#F1BA43;}
	.st11{clip-path:url(#SVGID_4_);}
	.st12{clip-path:url(#SVGID_6_);}
	.st13{clip-path:url(#SVGID_8_);}
	.st14{clip-path:url(#SVGID_10_);}
	.st15{clip-path:url(#SVGID_12_);}
	.st16{clip-path:url(#SVGID_14_);}
	.st17{clip-path:url(#SVGID_16_);}
	.st18{clip-path:url(#SVGID_18_);}
	.st19{clip-path:url(#SVGID_20_);}
	.st20{clip-path:url(#SVGID_22_);}
	.st21{clip-path:url(#SVGID_24_);}
	.st22{clip-path:url(#SVGID_26_);}
	.st23{clip-path:url(#SVGID_28_);}
	.st24{clip-path:url(#SVGID_30_);}
	.st25{clip-path:url(#SVGID_32_);}
	.st26{clip-path:url(#SVGID_34_);}
	.st27{clip-path:url(#SVGID_36_);}
	.st28{clip-path:url(#SVGID_38_);}
	.st29{clip-path:url(#SVGID_40_);}
	.st30{clip-path:url(#SVGID_42_);}
	.st31{clip-path:url(#SVGID_44_);}
	.st32{clip-path:url(#SVGID_46_);}
	.st33{clip-path:url(#SVGID_48_);}
	.st34{clip-path:url(#SVGID_50_);}
	.st35{clip-path:url(#SVGID_52_);}
	.st36{clip-path:url(#SVGID_54_);}
	.st37{clip-path:url(#SVGID_56_);}
	.st38{clip-path:url(#SVGID_58_);}
	.st39{clip-path:url(#SVGID_60_);}
	.st40{clip-path:url(#SVGID_62_);}
	.st41{clip-path:url(#SVGID_64_);}
	.st42{clip-path:url(#SVGID_66_);}
	.st43{display:inline;fill:none;stroke:#F1BA43;stroke-miterlimit:10;}
</style>
<g id="Layer_1" class="st0">
	<g class="st1">
		<g>
			<path class="st2" d="M239.8,107.6L239.8,107.6h-35.2V86.5v-4l-2.5-1.2c-10.9-4.7-22.6-7.7-34.5-8.8c0,0-12.3-1.2-16.5-1.2
				c-4.2,0-16.5,1.2-16.5,1.2c-11.9,1.1-23.5,4.1-34.5,8.8l-2.5,1.2v25H60.2v0.1l-8.8,8.7h8.8l0,0h46.2v-0.1H196v0.1h43.9l0,0h8.7
				L239.8,107.6z M195.9,112.4h-89.6V88.3c9.8-3.7,20.1-6.2,30.5-7.2l1.4-0.1c0,0,9.6-0.8,12.9-0.8c3.3,0,12.9,0.8,12.9,0.8l1.4,0.1
				c10.5,0.9,20.7,3.3,30.5,7.2L195.9,112.4L195.9,112.4L195.9,112.4z M133.2,201l-4.9-5.8l6.4-6.4l5.8,4.9c1.7-1,3.4-1.8,5.3-2.2
				l0.7-7.5h9l0.7,7.5c1.9,0.4,3.6,1.2,5.3,2.2l5.8-4.9l6.4,6.4L169,201c0.8,1.2,1.3,2.5,1.8,3.9c-3.1,2.1-6.3,4-9.6,5.6
				c-0.6-5.5-5.5-9.6-11-9c-4.9,0.4-8.6,4.3-9,9c-3.3-1.7-6.6-3.5-9.6-5.6C131.9,203.6,132.5,202.2,133.2,201z M248.7,172h-8.8l0,0
				h-39.4l0,0H97.9l0,0H60.2l0,0h-8.8l8.7,8.7l0,0h37.4v3.5l0.2,0.8c0.4,1.3,12.3,32.3,52.1,43.3l1.2,0.3l1.2-0.3
				c39.8-11,51.7-42,52.1-43.3l0.2-0.8v-3.5h35.3l0,0L248.7,172z M195.9,182.7c-2.4,5.3-5.6,10.3-9.5,14.7
				c-9.4,10.7-21.6,18.4-35.3,22.3c-13.7-3.7-26-11.6-35.3-22.3c-3.9-4.4-7.1-9.4-9.5-14.7v-6.8H196v6.8H195.9z M141.2,91.7
				l-5.2,5.1l5.2,5.2h-4l-5.5-5.2l5.5-5.1H141.2z M153.5,89.8h3.4l-7.3,14.7H146L153.5,89.8z M165.7,91.7l5.5,5.1l-5.5,5.2h-4
				l5.2-5.2l-5.2-5.1H165.7z"/>
		</g>
		<g>
			<g>
				<polygon class="st2" points="57.2,163.9 57.2,126.3 48.1,126.3 48.1,140.9 34,140.9 34,126.3 25,126.3 25,163.9 34,163.9 
					34,149.3 48.1,149.3 48.1,163.9 				"/>
			</g>
			<g>
				<path class="st2" d="M65.7,163.9h9.7l2.2-6h14.9l2.2,6h9.7l-15.1-37.6h-8.6L65.7,163.9z M85,137.2L85,137.2
					c0.1,0,1.1,3.4,1.9,5.5l2.6,7.3h-9l2.6-7.3C84,140.6,84.9,137.2,85,137.2z"/>
			</g>
			<g>
				<path class="st2" d="M128.6,134.5c3,0,5.8,1.2,7.9,3.5l9.1-2.4c-5.3-9.4-17.2-12.7-26.6-7.3c-9.4,5.4-12.6,17.2-7.3,26.6
					c5.3,9.4,17.2,12.6,26.6,7.3c3.4-2,6.2-5,7.9-8.5l-9.1-2.3c-2,2.9-5.2,4.5-8.6,4.4c-5.8,0-10.1-4.1-10.1-10.6
					C118.6,138.9,122.4,134.5,128.6,134.5z"/>
			</g>
			<g>
				<path class="st2" d="M165.9,126.3h-9v37.6h9v-12.5l3.2-3.2l11.4,15.7h10.7L175,142.3l16-16h-11l-9.1,9c-3.9,3.9-4.9,5.1-5,5.1
					l0,0c0,0,0.1-1.9,0.1-8L165.9,126.3L165.9,126.3L165.9,126.3z"/>
			</g>
			<g>
				<path class="st2" d="M230.8,139.2c0-7.7-5.7-12.9-15.2-12.9h-14v37.6h9v-12.2h4.6l6.9,12.2h10.1L224,150
					C228.3,148.1,231,143.8,230.8,139.2z M216.9,143.6h-6.3v-8.9h6.3c2.4,0,4.5,2,4.5,4.4s-2,4.5-4.4,4.5
					C216.9,143.6,216.9,143.6,216.9,143.6L216.9,143.6z"/>
			</g>
			<g>
				<path class="st2" d="M266,126.3V147c0,6.5-2.6,9.3-7.6,9.3c-5,0-7.6-2.8-7.6-9.3v-20.7h-9v20.9c0,11.2,6.6,17.4,16.6,17.4
					c9.9,0,16.6-6.2,16.6-17.4v-20.9H266z"/>
			</g>
		</g>
	</g>
</g>
<g id="Layer_3" class="st0">
	<g id="Layer_3_copy" class="st1">
	</g>
	<g id="Layer_3_copy_2" class="st1">
	</g>
	<g>
		<polygon class="st3" points="349.4,162.9 368.4,234.7 368.4,162.9 		"/>
		<polygon class="st4" points="-23,209.9 142.7,166 165,160.1 75.8,70.8 75,70 79.8,65.1 -63.6,116.8 -15.3,606.4 22.4,592.8 
			22.4,381.2 10.1,335 		"/>
		<polygon class="st5" points="75.8,70.8 165,160.1 336.6,114.6 349.4,162.9 368.4,162.9 368.4,234.7 372.4,249.8 382.7,288.5 
			481.5,189.6 218.4,-73.4 79.8,65.1 75,70 		"/>
		<polygon class="st6" points="372.4,249.8 368.4,234.7 349.4,162.9 336.6,114.6 165,160.1 142.7,166 -23,209.9 10.1,335 
			22.4,381.2 28.9,406 388.6,310.7 382.7,288.5 		"/>
	</g>
	<g id="Layer_7">
		
			<rect x="-58.2" y="63.2" transform="matrix(0.9827 -0.1852 0.1852 0.9827 -28.2896 26.5281)" class="st4" width="372" height="202.9"/>
		
			<rect x="89" y="29.4" transform="matrix(0.7071 0.7071 -0.7071 0.7071 173.0734 -156.1281)" class="st5" width="372" height="202.9"/>
		<rect x="-6.8" y="163.9" class="st6" width="372" height="202.9"/>
	</g>
</g>
<g id="Layer_1_copy_2" class="st0">
	<g class="st1">
		<defs>
			<path id="SVGID_1_" d="M239.8,107.6h-35.2V86.5v-4l-2.5-1.2c-10.9-4.7-22.6-7.7-34.5-8.8c0,0-12.3-1.2-16.5-1.2
				s-16.5,1.2-16.5,1.2c-11.9,1.1-23.5,4.1-34.5,8.8l-2.5,1.2v25H60.2v0.1l-8.8,8.7h8.8h46.2v-0.1H196v0.1h43.9h8.7L239.8,107.6z
				 M195.9,112.4h-89.6V88.3c9.8-3.7,20.1-6.2,30.5-7.2l1.4-0.1c0,0,9.6-0.8,12.9-0.8S164,81,164,81l1.4,0.1
				c10.5,0.9,20.7,3.3,30.5,7.2L195.9,112.4z"/>
		</defs>
		<clipPath id="SVGID_2_">
			<use xlink:href="#SVGID_1_"  style="overflow:visible;"/>
		</clipPath>
		<g class="st7">
			<polygon class="st8" points="349.4,162.9 368.4,234.7 368.4,162.9 			"/>
			<polygon class="st9" points="-23,209.9 142.7,166 165,160.1 75.8,70.8 75,70 79.8,65.1 -63.6,116.8 -15.3,606.4 22.4,592.8 
				22.4,381.2 10.1,335 			"/>
			<polygon class="st10" points="75.8,70.8 165,160.1 336.6,114.6 349.4,162.9 368.4,162.9 368.4,234.7 372.4,249.8 382.7,288.5 
				481.5,189.6 218.4,-73.4 79.8,65.1 75,70 			"/>
			<polygon class="st2" points="372.4,249.8 368.4,234.7 349.4,162.9 336.6,114.6 165,160.1 142.7,166 -23,209.9 10.1,335 
				22.4,381.2 28.9,406 388.6,310.7 382.7,288.5 			"/>
		</g>
	</g>
	<path class="st6" d="M133.2,201l-4.9-5.8l6.4-6.4l5.8,4.9c1.7-1,3.4-1.8,5.3-2.2l0.7-7.5h9l0.7,7.5c1.9,0.4,3.6,1.2,5.3,2.2
		l5.8-4.9l6.4,6.4L169,201c0.8,1.2,1.3,2.5,1.8,3.9c-3.1,2.1-6.3,4-9.6,5.6c-0.6-5.5-5.5-9.6-11-9c-4.9,0.4-8.6,4.3-9,9
		c-3.3-1.7-6.6-3.5-9.6-5.6C131.9,203.6,132.5,202.2,133.2,201z"/>
	<g class="st1">
		<defs>
			<path id="SVGID_3_" d="M239.8,172h-39.4H97.9H60.2h-8.8l8.7,8.7h37.4v3.5l0.2,0.8c0.4,1.3,12.3,32.3,52.1,43.3l1.2,0.3l1.2-0.3
				c39.8-11,51.7-42,52.1-43.3l0.2-0.8v-3.5h35.3l8.8-8.7H239.8z M196,182.7h-0.1c-2.4,5.3-5.6,10.3-9.5,14.7
				c-9.4,10.7-21.6,18.4-35.3,22.3c-13.7-3.7-26-11.6-35.3-22.3c-3.9-4.4-7.1-9.4-9.5-14.7v-6.8H196V182.7z"/>
		</defs>
		<clipPath id="SVGID_4_">
			<use xlink:href="#SVGID_3_"  style="overflow:visible;"/>
		</clipPath>
		<g class="st11">
			<polygon class="st8" points="349.4,162.9 368.4,234.7 368.4,162.9 			"/>
			<polygon class="st9" points="-23,209.9 142.7,166 165,160.1 75.8,70.8 75,70 79.8,65.1 -63.6,116.8 -15.3,606.4 22.4,592.8 
				22.4,381.2 10.1,335 			"/>
			<polygon class="st10" points="75.8,70.8 165,160.1 336.6,114.6 349.4,162.9 368.4,162.9 368.4,234.7 372.4,249.8 382.7,288.5 
				481.5,189.6 218.4,-73.4 79.8,65.1 75,70 			"/>
			<polygon class="st2" points="372.4,249.8 368.4,234.7 349.4,162.9 336.6,114.6 165,160.1 142.7,166 -23,209.9 10.1,335 
				22.4,381.2 28.9,406 388.6,310.7 382.7,288.5 			"/>
		</g>
	</g>
	<g class="st1">
		<defs>
			<polygon id="SVGID_5_" points="141.2,91.7 136,96.8 141.2,101.9 137.2,101.9 131.7,96.8 137.2,91.7 			"/>
		</defs>
		<clipPath id="SVGID_6_">
			<use xlink:href="#SVGID_5_"  style="overflow:visible;"/>
		</clipPath>
		<g class="st12">
			<polygon class="st8" points="349.4,162.9 368.4,234.7 368.4,162.9 			"/>
			<polygon class="st9" points="-23,209.9 142.7,166 165,160.1 75.8,70.8 75,70 79.8,65.1 -63.6,116.8 -15.3,606.4 22.4,592.8 
				22.4,381.2 10.1,335 			"/>
			<polygon class="st10" points="75.8,70.8 165,160.1 336.6,114.6 349.4,162.9 368.4,162.9 368.4,234.7 372.4,249.8 382.7,288.5 
				481.5,189.6 218.4,-73.4 79.8,65.1 75,70 			"/>
			<polygon class="st2" points="372.4,249.8 368.4,234.7 349.4,162.9 336.6,114.6 165,160.1 142.7,166 -23,209.9 10.1,335 
				22.4,381.2 28.9,406 388.6,310.7 382.7,288.5 			"/>
		</g>
	</g>
	<g class="st1">
		<defs>
			<polygon id="SVGID_7_" points="153.5,89.8 156.9,89.8 149.7,104.5 146,104.5 			"/>
		</defs>
		<clipPath id="SVGID_8_">
			<use xlink:href="#SVGID_7_"  style="overflow:visible;"/>
		</clipPath>
		<g class="st13">
			<polygon class="st8" points="349.4,162.9 368.4,234.7 368.4,162.9 			"/>
			<polygon class="st9" points="-23,209.9 142.7,166 165,160.1 75.8,70.8 75,70 79.8,65.1 -63.6,116.8 -15.3,606.4 22.4,592.8 
				22.4,381.2 10.1,335 			"/>
			<polygon class="st10" points="75.8,70.8 165,160.1 336.6,114.6 349.4,162.9 368.4,162.9 368.4,234.7 372.4,249.8 382.7,288.5 
				481.5,189.6 218.4,-73.4 79.8,65.1 75,70 			"/>
			<polygon class="st2" points="372.4,249.8 368.4,234.7 349.4,162.9 336.6,114.6 165,160.1 142.7,166 -23,209.9 10.1,335 
				22.4,381.2 28.9,406 388.6,310.7 382.7,288.5 			"/>
		</g>
	</g>
	<g class="st1">
		<defs>
			<polygon id="SVGID_9_" points="165.7,91.7 171.2,96.8 165.7,101.9 161.7,101.9 166.9,96.8 161.7,91.7 			"/>
		</defs>
		<clipPath id="SVGID_10_">
			<use xlink:href="#SVGID_9_"  style="overflow:visible;"/>
		</clipPath>
		<g class="st14">
			<polygon class="st8" points="349.4,162.9 368.4,234.7 368.4,162.9 			"/>
			<polygon class="st9" points="-23,209.9 142.7,166 165,160.1 75.8,70.8 75,70 79.8,65.1 -63.6,116.8 -15.3,606.4 22.4,592.8 
				22.4,381.2 10.1,335 			"/>
			<polygon class="st10" points="75.8,70.8 165,160.1 336.6,114.6 349.4,162.9 368.4,162.9 368.4,234.7 372.4,249.8 382.7,288.5 
				481.5,189.6 218.4,-73.4 79.8,65.1 75,70 			"/>
			<polygon class="st2" points="372.4,249.8 368.4,234.7 349.4,162.9 336.6,114.6 165,160.1 142.7,166 -23,209.9 10.1,335 
				22.4,381.2 28.9,406 388.6,310.7 382.7,288.5 			"/>
		</g>
	</g>
	<g class="st1">
		<defs>
			<polygon id="SVGID_11_" points="57.2,163.9 57.2,126.3 48.1,126.3 48.1,140.9 34,140.9 34,126.3 25,126.3 25,163.9 34,163.9 
				34,149.3 48.1,149.3 48.1,163.9 			"/>
		</defs>
		<clipPath id="SVGID_12_">
			<use xlink:href="#SVGID_11_"  style="overflow:visible;"/>
		</clipPath>
		<g class="st15">
			<polygon class="st8" points="349.4,162.9 368.4,234.7 368.4,162.9 			"/>
			<polygon class="st9" points="-23,209.9 142.7,166 165,160.1 75.8,70.8 75,70 79.8,65.1 -63.6,116.8 -15.3,606.4 22.4,592.8 
				22.4,381.2 10.1,335 			"/>
			<polygon class="st10" points="75.8,70.8 165,160.1 336.6,114.6 349.4,162.9 368.4,162.9 368.4,234.7 372.4,249.8 382.7,288.5 
				481.5,189.6 218.4,-73.4 79.8,65.1 75,70 			"/>
			<polygon class="st2" points="372.4,249.8 368.4,234.7 349.4,162.9 336.6,114.6 165,160.1 142.7,166 -23,209.9 10.1,335 
				22.4,381.2 28.9,406 388.6,310.7 382.7,288.5 			"/>
		</g>
	</g>
	<g class="st1">
		<defs>
			<path id="SVGID_13_" d="M65.7,163.9h9.7l2.2-6h14.9l2.2,6h9.7l-15.1-37.6h-8.6L65.7,163.9z M85,137.2L85,137.2
				c0.1,0,1.1,3.4,1.9,5.5l2.6,7.3h-9l2.6-7.3C84,140.6,84.9,137.2,85,137.2z"/>
		</defs>
		<clipPath id="SVGID_14_">
			<use xlink:href="#SVGID_13_"  style="overflow:visible;"/>
		</clipPath>
		<g class="st16">
			<polygon class="st8" points="349.4,162.9 368.4,234.7 368.4,162.9 			"/>
			<polygon class="st9" points="-23,209.9 142.7,166 165,160.1 75.8,70.8 75,70 79.8,65.1 -63.6,116.8 -15.3,606.4 22.4,592.8 
				22.4,381.2 10.1,335 			"/>
			<polygon class="st10" points="75.8,70.8 165,160.1 336.6,114.6 349.4,162.9 368.4,162.9 368.4,234.7 372.4,249.8 382.7,288.5 
				481.5,189.6 218.4,-73.4 79.8,65.1 75,70 			"/>
			<polygon class="st2" points="372.4,249.8 368.4,234.7 349.4,162.9 336.6,114.6 165,160.1 142.7,166 -23,209.9 10.1,335 
				22.4,381.2 28.9,406 388.6,310.7 382.7,288.5 			"/>
		</g>
	</g>
	<g class="st1">
		<defs>
			<path id="SVGID_15_" d="M128.6,134.5c3,0,5.8,1.2,7.9,3.5l9.1-2.4c-5.3-9.4-17.2-12.7-26.6-7.3c-9.4,5.4-12.6,17.2-7.3,26.6
				c5.3,9.4,17.2,12.6,26.6,7.3c3.4-2,6.2-5,7.9-8.5l-9.1-2.3c-2,2.9-5.2,4.5-8.6,4.4c-5.8,0-10.1-4.1-10.1-10.6
				C118.6,138.9,122.4,134.5,128.6,134.5z"/>
		</defs>
		<clipPath id="SVGID_16_">
			<use xlink:href="#SVGID_15_"  style="overflow:visible;"/>
		</clipPath>
		<g class="st17">
			<polygon class="st8" points="349.4,162.9 368.4,234.7 368.4,162.9 			"/>
			<polygon class="st9" points="-23,209.9 142.7,166 165,160.1 75.8,70.8 75,70 79.8,65.1 -63.6,116.8 -15.3,606.4 22.4,592.8 
				22.4,381.2 10.1,335 			"/>
			<polygon class="st10" points="75.8,70.8 165,160.1 336.6,114.6 349.4,162.9 368.4,162.9 368.4,234.7 372.4,249.8 382.7,288.5 
				481.5,189.6 218.4,-73.4 79.8,65.1 75,70 			"/>
			<polygon class="st2" points="372.4,249.8 368.4,234.7 349.4,162.9 336.6,114.6 165,160.1 142.7,166 -23,209.9 10.1,335 
				22.4,381.2 28.9,406 388.6,310.7 382.7,288.5 			"/>
		</g>
	</g>
	<g class="st1">
		<defs>
			<path id="SVGID_17_" d="M165.9,126.3h-9v37.6h9v-12.5l3.2-3.2l11.4,15.7h10.7L175,142.3l16-16h-11l-9.1,9c-3.9,3.9-4.9,5.1-5,5.1
				l0,0c0,0,0.1-1.9,0.1-8L165.9,126.3L165.9,126.3L165.9,126.3z"/>
		</defs>
		<clipPath id="SVGID_18_">
			<use xlink:href="#SVGID_17_"  style="overflow:visible;"/>
		</clipPath>
		<g class="st18">
			<polygon class="st8" points="349.4,162.9 368.4,234.7 368.4,162.9 			"/>
			<polygon class="st9" points="-23,209.9 142.7,166 142.7,166 75.8,70.8 75,70 79.8,65.1 -63.6,116.8 -15.3,606.4 22.4,592.8 
				22.4,381.2 10.1,335 			"/>
			<polygon class="st10" points="75.8,70.8 142.7,166 336.6,114.6 349.4,162.9 368.4,162.9 368.4,234.7 372.4,249.8 382.7,288.5 
				481.5,189.6 218.4,-73.4 79.8,65.1 75,70 			"/>
			<polygon class="st2" points="372.4,249.8 368.4,234.7 349.4,162.9 323.1,118.2 137.9,167.3 142.7,166 -23,209.9 10.1,335 
				22.4,381.2 28.9,406 388.6,310.7 382.7,288.5 			"/>
		</g>
	</g>
	<g class="st1">
		<defs>
			<path id="SVGID_19_" d="M230.8,139.2c0-7.7-5.7-12.9-15.2-12.9h-14v37.6h9v-12.2h4.6l6.9,12.2h10.1L224,150
				C228.3,148.1,231,143.8,230.8,139.2z M216.9,143.6h-6.3v-8.9h6.3c2.4,0,4.5,2,4.5,4.4s-2,4.5-4.4,4.5
				C216.9,143.6,216.9,143.6,216.9,143.6L216.9,143.6z"/>
		</defs>
		<clipPath id="SVGID_20_">
			<use xlink:href="#SVGID_19_"  style="overflow:visible;"/>
		</clipPath>
		<g class="st19">
			<polygon class="st8" points="349.4,162.9 368.4,234.7 368.4,162.9 			"/>
			<polygon class="st9" points="-23,209.9 142.7,166 165,160.1 75.8,70.8 75,70 79.8,65.1 -63.6,116.8 -15.3,606.4 22.4,592.8 
				22.4,381.2 10.1,335 			"/>
			<polygon class="st10" points="75.8,70.8 165,160.1 336.6,114.6 349.4,162.9 368.4,162.9 368.4,234.7 372.4,249.8 382.7,288.5 
				481.5,189.6 218.4,-73.4 79.8,65.1 75,70 			"/>
			<polygon class="st2" points="372.4,249.8 368.4,234.7 349.4,162.9 336.6,114.6 165,160.1 142.7,166 -23,209.9 10.1,335 
				22.4,381.2 28.9,406 388.6,310.7 382.7,288.5 			"/>
		</g>
	</g>
	<g class="st1">
		<defs>
			<path id="SVGID_21_" d="M266,126.3V147c0,6.5-2.6,9.3-7.6,9.3c-5,0-7.6-2.8-7.6-9.3v-20.7h-9v20.9c0,11.2,6.6,17.4,16.6,17.4
				c9.9,0,16.6-6.2,16.6-17.4v-20.9H266z"/>
		</defs>
		<clipPath id="SVGID_22_">
			<use xlink:href="#SVGID_21_"  style="overflow:visible;"/>
		</clipPath>
		<g class="st20">
			<polygon class="st8" points="349.4,162.9 368.4,234.7 368.4,162.9 			"/>
			<polygon class="st9" points="-23,209.9 142.7,166 165,160.1 75.8,70.8 75,70 79.8,65.1 -63.6,116.8 -15.3,606.4 22.4,592.8 
				22.4,381.2 10.1,335 			"/>
			<polygon class="st10" points="75.8,70.8 165,160.1 336.6,114.6 349.4,162.9 368.4,162.9 368.4,234.7 372.4,249.8 382.7,288.5 
				481.5,189.6 218.4,-73.4 79.8,65.1 75,70 			"/>
			<polygon class="st2" points="372.4,249.8 368.4,234.7 349.4,162.9 336.6,114.6 165,160.1 142.7,166 -23,209.9 10.1,335 
				22.4,381.2 28.9,406 388.6,310.7 382.7,288.5 			"/>
		</g>
	</g>
</g>
<g id="Layer_1_copy_3" class="st0">
	<g class="st1">
		<g>
			<defs>
				<path id="SVGID_23_" d="M229.6,112.4h-31.2V93.7v-3.5l-2.2-1.1c-9.7-4.2-20-6.8-30.6-7.8c0,0-10.9-1.1-14.7-1.1
					s-14.7,1.1-14.7,1.1c-10.6,1-20.8,3.6-30.6,7.8l-2.2,1.1v22.2H70.4v0.1l-7.8,7.7h7.8h40.9v-0.1h79.4v0.1h38.9h7.7L229.6,112.4z
					 M190.7,116.7h-79.4V95.3c8.7-3.3,17.8-5.5,27.1-6.4l1.3-0.1c0,0,8.5-0.7,11.4-0.7s11.4,0.7,11.4,0.7l1.3,0.1
					c9.3,0.8,18.4,2.9,27.1,6.4L190.7,116.7z"/>
			</defs>
			<clipPath id="SVGID_24_">
				<use xlink:href="#SVGID_23_"  style="overflow:visible;"/>
			</clipPath>
			<g class="st21">
				<polygon class="st8" points="326.8,161.4 343.7,225.1 343.7,161.4 				"/>
				<polygon class="st9" points="-3.4,203.1 143.5,164.2 163.3,158.9 84.2,79.8 83.5,79.1 87.8,74.8 -39.3,120.6 3.5,554.6 
					36.9,542.6 36.9,355 26,314 				"/>
				<polygon class="st10" points="84.2,79.8 163.3,158.9 315.5,118.6 326.8,161.4 343.7,161.4 343.7,225.1 347.2,238.5 356.3,272.7 
					443.9,185.1 210.7,-48.1 87.8,74.8 83.5,79.1 				"/>
				<polygon class="st2" points="347.2,238.5 343.7,225.1 326.8,161.4 315.5,118.6 163.3,158.9 143.5,164.2 -3.4,203.1 26,314 
					36.9,355 42.7,377 361.5,292.5 356.3,272.7 				"/>
			</g>
		</g>
		<path class="st2" d="M135.1,195.2l-4.3-5.2l5.7-5.7l5.2,4.3c1.5-0.9,3-1.6,4.7-2l0.6-6.6h8l0.6,6.6c1.7,0.4,3.2,1.1,4.7,2l5.2-4.3
			l5.7,5.7l-4.3,5.2c0.7,1.1,1.2,2.2,1.6,3.4c-2.7,1.9-5.6,3.5-8.5,5c-0.5-4.9-4.9-8.5-9.8-8c-4.3,0.4-7.6,3.8-8,8
			c-2.9-1.5-5.9-3.1-8.5-5C134,197.5,134.5,196.3,135.1,195.2z"/>
		<g>
			<defs>
				<path id="SVGID_25_" d="M229.6,169.5h-34.9h-91H70.4h-7.8l7.7,7.7h33.1v3.1l0.2,0.7c0.4,1.2,10.9,28.6,46.2,38.4l1.1,0.3
					l1.1-0.3c35.3-9.8,45.8-37.2,46.2-38.4l0.2-0.7v-3.1h31.3l7.8-7.7H229.6z M190.8,179L190.8,179c-2.2,4.7-5.1,9.1-8.5,13
					c-8.3,9.5-19.2,16.3-31.3,19.7c-12.1-3.3-23.1-10.3-31.3-19.7c-3.4-3.9-6.3-8.3-8.4-13V173h79.4V179z"/>
			</defs>
			<clipPath id="SVGID_26_">
				<use xlink:href="#SVGID_25_"  style="overflow:visible;"/>
			</clipPath>
			<g class="st22">
				<polygon class="st8" points="326.8,161.4 343.7,225.1 343.7,161.4 				"/>
				<polygon class="st9" points="-3.4,203.1 143.5,164.2 163.3,158.9 84.2,79.8 83.5,79.1 87.8,74.8 -39.3,120.6 3.5,554.6 
					36.9,542.6 36.9,355 26,314 				"/>
				<polygon class="st10" points="84.2,79.8 163.3,158.9 315.5,118.6 326.8,161.4 343.7,161.4 343.7,225.1 347.2,238.5 356.3,272.7 
					443.9,185.1 210.7,-48.1 87.8,74.8 83.5,79.1 				"/>
				<polygon class="st2" points="347.2,238.5 343.7,225.1 326.8,161.4 315.5,118.6 163.3,158.9 143.5,164.2 -3.4,203.1 26,314 
					36.9,355 42.7,377 361.5,292.5 356.3,272.7 				"/>
			</g>
		</g>
		<g>
			<defs>
				<polygon id="SVGID_27_" points="142.2,98.3 137.6,102.8 142.2,107.4 138.7,107.4 133.8,102.8 138.7,98.3 				"/>
			</defs>
			<clipPath id="SVGID_28_">
				<use xlink:href="#SVGID_27_"  style="overflow:visible;"/>
			</clipPath>
			<g class="st23">
				<polygon class="st8" points="326.8,161.4 343.7,225.1 343.7,161.4 				"/>
				<polygon class="st9" points="-3.4,203.1 143.5,164.2 163.3,158.9 84.2,79.8 83.5,79.1 87.8,74.8 -39.3,120.6 3.5,554.6 
					36.9,542.6 36.9,355 26,314 				"/>
				<polygon class="st10" points="84.2,79.8 163.3,158.9 315.5,118.6 326.8,161.4 343.7,161.4 343.7,225.1 347.2,238.5 356.3,272.7 
					443.9,185.1 210.7,-48.1 87.8,74.8 83.5,79.1 				"/>
				<polygon class="st2" points="347.2,238.5 343.7,225.1 326.8,161.4 315.5,118.6 163.3,158.9 143.5,164.2 -3.4,203.1 26,314 
					36.9,355 42.7,377 361.5,292.5 356.3,272.7 				"/>
			</g>
		</g>
		<g>
			<defs>
				<polygon id="SVGID_29_" points="153.1,96.6 156.2,96.6 149.7,109.6 146.5,109.6 				"/>
			</defs>
			<clipPath id="SVGID_30_">
				<use xlink:href="#SVGID_29_"  style="overflow:visible;"/>
			</clipPath>
			<g class="st24">
				<polygon class="st8" points="326.8,161.4 343.7,225.1 343.7,161.4 				"/>
				<polygon class="st9" points="-3.4,203.1 143.5,164.2 163.3,158.9 84.2,79.8 83.5,79.1 87.8,74.8 -39.3,120.6 3.5,554.6 
					36.9,542.6 36.9,355 26,314 				"/>
				<polygon class="st10" points="84.2,79.8 163.3,158.9 315.5,118.6 326.8,161.4 343.7,161.4 343.7,225.1 347.2,238.5 356.3,272.7 
					443.9,185.1 210.7,-48.1 87.8,74.8 83.5,79.1 				"/>
				<polygon class="st2" points="347.2,238.5 343.7,225.1 326.8,161.4 315.5,118.6 163.3,158.9 143.5,164.2 -3.4,203.1 26,314 
					36.9,355 42.7,377 361.5,292.5 356.3,272.7 				"/>
			</g>
		</g>
		<g>
			<defs>
				<polygon id="SVGID_31_" points="163.9,98.3 168.8,102.8 163.9,107.4 160.4,107.4 165,102.8 160.4,98.3 				"/>
			</defs>
			<clipPath id="SVGID_32_">
				<use xlink:href="#SVGID_31_"  style="overflow:visible;"/>
			</clipPath>
			<g class="st25">
				<polygon class="st8" points="326.8,161.4 343.7,225.1 343.7,161.4 				"/>
				<polygon class="st9" points="-3.4,203.1 143.5,164.2 163.3,158.9 84.2,79.8 83.5,79.1 87.8,74.8 -39.3,120.6 3.5,554.6 
					36.9,542.6 36.9,355 26,314 				"/>
				<polygon class="st10" points="84.2,79.8 163.3,158.9 315.5,118.6 326.8,161.4 343.7,161.4 343.7,225.1 347.2,238.5 356.3,272.7 
					443.9,185.1 210.7,-48.1 87.8,74.8 83.5,79.1 				"/>
				<polygon class="st2" points="347.2,238.5 343.7,225.1 326.8,161.4 315.5,118.6 163.3,158.9 143.5,164.2 -3.4,203.1 26,314 
					36.9,355 42.7,377 361.5,292.5 356.3,272.7 				"/>
			</g>
		</g>
		<g>
			<defs>
				<polygon id="SVGID_33_" points="67.7,162.3 67.7,129 59.7,129 59.7,141.9 47.2,141.9 47.2,129 39.2,129 39.2,162.3 47.2,162.3 
					47.2,149.4 59.7,149.4 59.7,162.3 				"/>
			</defs>
			<clipPath id="SVGID_34_">
				<use xlink:href="#SVGID_33_"  style="overflow:visible;"/>
			</clipPath>
			<g class="st26">
				<polygon class="st8" points="326.8,161.4 343.7,225.1 343.7,161.4 				"/>
				<polygon class="st9" points="-3.4,203.1 143.5,164.2 163.3,158.9 84.2,79.8 83.5,79.1 87.8,74.8 -39.3,120.6 3.5,554.6 
					36.9,542.6 36.9,355 26,314 				"/>
				<polygon class="st10" points="84.2,79.8 163.3,158.9 315.5,118.6 326.8,161.4 343.7,161.4 343.7,225.1 347.2,238.5 356.3,272.7 
					443.9,185.1 210.7,-48.1 87.8,74.8 83.5,79.1 				"/>
				<polygon class="st2" points="347.2,238.5 343.7,225.1 326.8,161.4 315.5,118.6 163.3,158.9 143.5,164.2 -3.4,203.1 26,314 
					36.9,355 42.7,377 361.5,292.5 356.3,272.7 				"/>
			</g>
		</g>
		<g>
			<defs>
				<path id="SVGID_35_" d="M75.2,162.3h8.6l2-5.3H99l2,5.3h8.6L96.2,129h-7.6L75.2,162.3z M92.3,138.7L92.3,138.7
					c0.1,0,1,3,1.7,4.9l2.3,6.4h-8l2.3-6.4C91.5,141.7,92.2,138.7,92.3,138.7z"/>
			</defs>
			<clipPath id="SVGID_36_">
				<use xlink:href="#SVGID_35_"  style="overflow:visible;"/>
			</clipPath>
			<g class="st27">
				<polygon class="st8" points="326.8,161.4 343.7,225.1 343.7,161.4 				"/>
				<polygon class="st9" points="-3.4,203.1 143.5,164.2 163.3,158.9 84.2,79.8 83.5,79.1 87.8,74.8 -39.3,120.6 3.5,554.6 
					36.9,542.6 36.9,355 26,314 				"/>
				<polygon class="st10" points="84.2,79.8 163.3,158.9 315.5,118.6 326.8,161.4 343.7,161.4 343.7,225.1 347.2,238.5 356.3,272.7 
					443.9,185.1 210.7,-48.1 87.8,74.8 83.5,79.1 				"/>
				<polygon class="st2" points="347.2,238.5 343.7,225.1 326.8,161.4 315.5,118.6 163.3,158.9 143.5,164.2 -3.4,203.1 26,314 
					36.9,355 42.7,377 361.5,292.5 356.3,272.7 				"/>
			</g>
		</g>
		<g>
			<defs>
				<path id="SVGID_37_" d="M131,136.2c2.6,0,5.2,1.1,7,3.1l8.1-2.1c-4.7-8.3-15.2-11.2-23.6-6.4c-8.3,4.8-11.1,15.2-6.4,23.6
					s15.2,11.1,23.6,6.4c3-1.8,5.5-4.4,7-7.5l-8.1-2.1c-1.8,2.5-4.6,4-7.6,3.9c-5.2,0-9-3.6-9-9.4
					C122.1,140.1,125.6,136.2,131,136.2z"/>
			</defs>
			<clipPath id="SVGID_38_">
				<use xlink:href="#SVGID_37_"  style="overflow:visible;"/>
			</clipPath>
			<g class="st28">
				<polygon class="st8" points="326.8,161.4 343.7,225.1 343.7,161.4 				"/>
				<polygon class="st9" points="-3.4,203.1 143.5,164.2 163.3,158.9 84.2,79.8 83.5,79.1 87.8,74.8 -39.3,120.6 3.5,554.6 
					36.9,542.6 36.9,355 26,314 				"/>
				<polygon class="st10" points="84.2,79.8 163.3,158.9 315.5,118.6 326.8,161.4 343.7,161.4 343.7,225.1 347.2,238.5 356.3,272.7 
					443.9,185.1 210.7,-48.1 87.8,74.8 83.5,79.1 				"/>
				<polygon class="st2" points="347.2,238.5 343.7,225.1 326.8,161.4 315.5,118.6 163.3,158.9 143.5,164.2 -3.4,203.1 26,314 
					36.9,355 42.7,377 361.5,292.5 356.3,272.7 				"/>
			</g>
		</g>
		<g>
			<defs>
				<path id="SVGID_39_" d="M164.1,129h-8v33.3h8v-11l2.8-2.8l10.1,13.9h9.5l-14.3-19.2l14.2-14.2h-9.8l-8.1,8
					c-3.4,3.4-4.3,4.5-4.4,4.5l0,0c0,0,0.1-1.7,0.1-7.1L164.1,129L164.1,129L164.1,129z"/>
			</defs>
			<clipPath id="SVGID_40_">
				<use xlink:href="#SVGID_39_"  style="overflow:visible;"/>
			</clipPath>
			<g class="st29">
				<polygon class="st8" points="326.8,161.4 343.7,225.1 343.7,161.4 				"/>
				<polygon class="st9" points="-3.4,203.1 143.5,164.2 143.5,164.2 84.2,79.8 83.5,79.1 87.8,74.8 -39.3,120.6 3.5,554.6 
					36.9,542.6 36.9,355 26,314 				"/>
				<polygon class="st10" points="84.2,79.8 143.5,164.2 315.5,118.6 326.8,161.4 343.7,161.4 343.7,225.1 347.2,238.5 356.3,272.7 
					443.9,185.1 210.7,-48.1 87.8,74.8 83.5,79.1 				"/>
				<polygon class="st2" points="347.2,238.5 343.7,225.1 326.8,161.4 303.5,121.8 139.3,165.3 143.5,164.2 -3.4,203.1 26,314 
					36.9,355 42.7,377 361.5,292.5 356.3,272.7 				"/>
			</g>
		</g>
		<g>
			<defs>
				<path id="SVGID_41_" d="M221.6,140.4c0-6.8-5.1-11.4-13.5-11.4h-12.4v33.3h8v-10.8h4.1l6.2,10.8h9l-7.4-12.3
					C219.4,148.3,221.8,144.5,221.6,140.4z M209.3,144.3h-5.6v-7.9h5.6c2.1,0,4,1.8,4,3.9S211.6,144.3,209.3,144.3
					C209.3,144.3,209.3,144.3,209.3,144.3L209.3,144.3z"/>
			</defs>
			<clipPath id="SVGID_42_">
				<use xlink:href="#SVGID_41_"  style="overflow:visible;"/>
			</clipPath>
			<g class="st30">
				<polygon class="st8" points="326.8,161.4 343.7,225.1 343.7,161.4 				"/>
				<polygon class="st9" points="-3.4,203.1 143.5,164.2 163.3,158.9 84.2,79.8 83.5,79.1 87.8,74.8 -39.3,120.6 3.5,554.6 
					36.9,542.6 36.9,355 26,314 				"/>
				<polygon class="st10" points="84.2,79.8 163.3,158.9 315.5,118.6 326.8,161.4 343.7,161.4 343.7,225.1 347.2,238.5 356.3,272.7 
					443.9,185.1 210.7,-48.1 87.8,74.8 83.5,79.1 				"/>
				<polygon class="st2" points="347.2,238.5 343.7,225.1 326.8,161.4 315.5,118.6 163.3,158.9 143.5,164.2 -3.4,203.1 26,314 
					36.9,355 42.7,377 361.5,292.5 356.3,272.7 				"/>
			</g>
		</g>
		<g>
			<defs>
				<path id="SVGID_43_" d="M252.8,129v18.4c0,5.8-2.3,8.2-6.7,8.2c-4.4,0-6.7-2.4-6.7-8.2V129h-8v18.6c0,10,5.9,15.4,14.8,15.4
					c8.8,0,14.8-5.5,14.8-15.4V129H252.8z"/>
			</defs>
			<clipPath id="SVGID_44_">
				<use xlink:href="#SVGID_43_"  style="overflow:visible;"/>
			</clipPath>
			<g class="st31">
				<polygon class="st8" points="326.8,161.4 343.7,225.1 343.7,161.4 				"/>
				<polygon class="st9" points="-3.4,203.1 143.5,164.2 163.3,158.9 84.2,79.8 83.5,79.1 87.8,74.8 -39.3,120.6 3.5,554.6 
					36.9,542.6 36.9,355 26,314 				"/>
				<polygon class="st10" points="84.2,79.8 163.3,158.9 315.5,118.6 326.8,161.4 343.7,161.4 343.7,225.1 347.2,238.5 356.3,272.7 
					443.9,185.1 210.7,-48.1 87.8,74.8 83.5,79.1 				"/>
				<polygon class="st2" points="347.2,238.5 343.7,225.1 326.8,161.4 315.5,118.6 163.3,158.9 143.5,164.2 -3.4,203.1 26,314 
					36.9,355 42.7,377 361.5,292.5 356.3,272.7 				"/>
			</g>
		</g>
	</g>
</g>
<g id="Layer_1_copy_4">
	<g>
		<g>
			<defs>
				<path id="SVGID_45_" d="M257.8,99.1h-42.2V73.8V69l-3-1.5c-13.1-5.7-27.1-9.3-41.4-10.6c0,0-14.8-1.5-19.8-1.5
					S131.5,57,131.5,57c-14.3,1.3-28.2,4.9-41.4,10.6L87,69v30H42.2v0.1l-10.6,10.4h10.6h55.4v-0.1h107.5v0.1h52.6h10.4L257.8,99.1z
					 M205,104.9H97.5v-29c11.8-4.5,24.1-7.4,36.6-8.6l1.7-0.1c0,0,11.5-0.9,15.5-0.9s15.5,0.9,15.5,0.9l1.7,0.1
					c12.6,1.1,24.9,4,36.6,8.6L205,104.9z"/>
			</defs>
			<clipPath id="SVGID_46_">
				<use xlink:href="#SVGID_45_"  style="overflow:visible;"/>
			</clipPath>
			<g class="st32">
				<polygon class="st8" points="389.3,165.4 412.1,251.6 412.1,165.4 				"/>
				<polygon class="st9" points="-57.6,221.9 141.2,169.2 168,162.1 60.9,55 60,54 65.8,48.2 -106.3,110.2 -48.4,697.6 -3.1,681.4 
					-3.1,427.5 -17.8,372 				"/>
				<polygon class="st10" points="60.9,55 168,162.1 374,107.6 389.3,165.4 412.1,165.4 412.1,251.6 416.9,269.8 429.2,316.1 
					547.8,197.6 232.1,-118.1 65.8,48.2 60,54 				"/>
				<polygon class="st2" points="416.9,269.8 412.1,251.6 389.3,165.4 374,107.6 168,162.1 141.2,169.2 -57.6,221.9 -17.8,372 
					-3.1,427.5 4.7,457.2 436.3,342.9 429.2,316.1 				"/>
			</g>
		</g>
		<path class="st2" d="M129.9,211.2l-5.8-7l7.7-7.7l7,5.8c2-1.2,4.1-2.1,6.3-2.6l0.8-9h10.8l0.8,9c2.2,0.5,4.4,1.5,6.3,2.6l7-5.8
			l7.7,7.7l-5.8,7c0.9,1.5,1.6,3,2.1,4.6c-3.7,2.5-7.5,4.8-11.5,6.7c-0.7-6.6-6.6-11.5-13.2-10.8c-5.8,0.5-10.3,5.2-10.8,10.8
			c-4-2-7.9-4.2-11.5-6.7C128.3,214.3,129,212.7,129.9,211.2z"/>
		<g>
			<defs>
				<path id="SVGID_47_" d="M257.8,176.5h-47.2H87.4H42.2H31.6l10.4,10.4h44.8v4.2l0.3,0.9c0.5,1.6,14.8,38.8,62.6,52l1.5,0.4
					l1.5-0.4c47.8-13.2,62-50.4,62.6-52l0.3-0.9v-4.2h42.3l10.6-10.4H257.8z M205.2,189.3H205c-2.9,6.3-6.7,12.3-11.4,17.6
					c-11.2,12.8-25.9,22.1-42.3,26.7c-16.4-4.5-31.2-13.9-42.3-26.7c-4.6-5.3-8.5-11.2-11.4-17.6v-8.2h107.5V189.3z"/>
			</defs>
			<clipPath id="SVGID_48_">
				<use xlink:href="#SVGID_47_"  style="overflow:visible;"/>
			</clipPath>
			<g class="st33">
				<polygon class="st8" points="389.3,165.4 412.1,251.6 412.1,165.4 				"/>
				<polygon class="st9" points="-57.6,221.9 141.2,169.2 168,162.1 60.9,55 60,54 65.8,48.2 -106.3,110.2 -48.4,697.6 -3.1,681.4 
					-3.1,427.5 -17.8,372 				"/>
				<polygon class="st10" points="60.9,55 168,162.1 374,107.6 389.3,165.4 412.1,165.4 412.1,251.6 416.9,269.8 429.2,316.1 
					547.8,197.6 232.1,-118.1 65.8,48.2 60,54 				"/>
				<polygon class="st2" points="416.9,269.8 412.1,251.6 389.3,165.4 374,107.6 168,162.1 141.2,169.2 -57.6,221.9 -17.8,372 
					-3.1,427.5 4.7,457.2 436.3,342.9 429.2,316.1 				"/>
			</g>
		</g>
		<g>
			<defs>
				<polygon id="SVGID_49_" points="139.4,80 133.2,86.1 139.4,92.3 134.7,92.3 128,86.1 134.7,80 				"/>
			</defs>
			<clipPath id="SVGID_50_">
				<use xlink:href="#SVGID_49_"  style="overflow:visible;"/>
			</clipPath>
			<g class="st34">
				<polygon class="st8" points="389.3,165.4 412.1,251.6 412.1,165.4 				"/>
				<polygon class="st9" points="-57.6,221.9 141.2,169.2 168,162.1 60.9,55 60,54 65.8,48.2 -106.3,110.2 -48.4,697.6 -3.1,681.4 
					-3.1,427.5 -17.8,372 				"/>
				<polygon class="st10" points="60.9,55 168,162.1 374,107.6 389.3,165.4 412.1,165.4 412.1,251.6 416.9,269.8 429.2,316.1 
					547.8,197.6 232.1,-118.1 65.8,48.2 60,54 				"/>
				<polygon class="st2" points="416.9,269.8 412.1,251.6 389.3,165.4 374,107.6 168,162.1 141.2,169.2 -57.6,221.9 -17.8,372 
					-3.1,427.5 4.7,457.2 436.3,342.9 429.2,316.1 				"/>
			</g>
		</g>
		<g>
			<defs>
				<polygon id="SVGID_51_" points="154.2,77.8 158.3,77.8 149.6,95.4 145.2,95.4 				"/>
			</defs>
			<clipPath id="SVGID_52_">
				<use xlink:href="#SVGID_51_"  style="overflow:visible;"/>
			</clipPath>
			<g class="st35">
				<polygon class="st8" points="389.3,165.4 412.1,251.6 412.1,165.4 				"/>
				<polygon class="st9" points="-57.6,221.9 141.2,169.2 168,162.1 60.9,55 60,54 65.8,48.2 -106.3,110.2 -48.4,697.6 -3.1,681.4 
					-3.1,427.5 -17.8,372 				"/>
				<polygon class="st10" points="60.9,55 168,162.1 374,107.6 389.3,165.4 412.1,165.4 412.1,251.6 416.9,269.8 429.2,316.1 
					547.8,197.6 232.1,-118.1 65.8,48.2 60,54 				"/>
				<polygon class="st2" points="416.9,269.8 412.1,251.6 389.3,165.4 374,107.6 168,162.1 141.2,169.2 -57.6,221.9 -17.8,372 
					-3.1,427.5 4.7,457.2 436.3,342.9 429.2,316.1 				"/>
			</g>
		</g>
		<g>
			<defs>
				<polygon id="SVGID_53_" points="168.8,80 175.4,86.1 168.8,92.3 164,92.3 170.2,86.1 164,80 				"/>
			</defs>
			<clipPath id="SVGID_54_">
				<use xlink:href="#SVGID_53_"  style="overflow:visible;"/>
			</clipPath>
			<g class="st36">
				<polygon class="st8" points="389.3,165.4 412.1,251.6 412.1,165.4 				"/>
				<polygon class="st9" points="-57.6,221.9 141.2,169.2 168,162.1 60.9,55 60,54 65.8,48.2 -106.3,110.2 -48.4,697.6 -3.1,681.4 
					-3.1,427.5 -17.8,372 				"/>
				<polygon class="st10" points="60.9,55 168,162.1 374,107.6 389.3,165.4 412.1,165.4 412.1,251.6 416.9,269.8 429.2,316.1 
					547.8,197.6 232.1,-118.1 65.8,48.2 60,54 				"/>
				<polygon class="st2" points="416.9,269.8 412.1,251.6 389.3,165.4 374,107.6 168,162.1 141.2,169.2 -57.6,221.9 -17.8,372 
					-3.1,427.5 4.7,457.2 436.3,342.9 429.2,316.1 				"/>
			</g>
		</g>
		<g>
			<defs>
				<polygon id="SVGID_55_" points="38.6,166.7 38.6,121.6 27.8,121.6 27.8,139 10.8,139 10.8,121.6 0,121.6 0,166.7 10.8,166.7 
					10.8,149.2 27.8,149.2 27.8,166.7 				"/>
			</defs>
			<clipPath id="SVGID_56_">
				<use xlink:href="#SVGID_55_"  style="overflow:visible;"/>
			</clipPath>
			<g class="st37">
				<polygon class="st8" points="389.3,165.4 412.1,251.6 412.1,165.4 				"/>
				<polygon class="st9" points="-57.6,221.9 141.2,169.2 168,162.1 60.9,55 60,54 65.8,48.2 -106.3,110.2 -48.4,697.6 -3.1,681.4 
					-3.1,427.5 -17.8,372 				"/>
				<polygon class="st10" points="60.9,55 168,162.1 374,107.6 389.3,165.4 412.1,165.4 412.1,251.6 416.9,269.8 429.2,316.1 
					547.8,197.6 232.1,-118.1 65.8,48.2 60,54 				"/>
				<polygon class="st2" points="416.9,269.8 412.1,251.6 389.3,165.4 374,107.6 168,162.1 141.2,169.2 -57.6,221.9 -17.8,372 
					-3.1,427.5 4.7,457.2 436.3,342.9 429.2,316.1 				"/>
			</g>
		</g>
		<g>
			<defs>
				<path id="SVGID_57_" d="M48.8,166.7h11.6l2.6-7.1H81l2.6,7.1h11.6l-18.1-45.1H66.8L48.8,166.7z M72,134.7L72,134.7
					c0.1,0,1.3,4.1,2.2,6.6l3.2,8.7H66.5l3.2-8.7C70.8,138.8,71.8,134.7,72,134.7z"/>
			</defs>
			<clipPath id="SVGID_58_">
				<use xlink:href="#SVGID_57_"  style="overflow:visible;"/>
			</clipPath>
			<g class="st38">
				<polygon class="st8" points="389.3,165.4 412.1,251.6 412.1,165.4 				"/>
				<polygon class="st9" points="-57.6,221.9 141.2,169.2 168,162.1 60.9,55 60,54 65.8,48.2 -106.3,110.2 -48.4,697.6 -3.1,681.4 
					-3.1,427.5 -17.8,372 				"/>
				<polygon class="st10" points="60.9,55 168,162.1 374,107.6 389.3,165.4 412.1,165.4 412.1,251.6 416.9,269.8 429.2,316.1 
					547.8,197.6 232.1,-118.1 65.8,48.2 60,54 				"/>
				<polygon class="st2" points="416.9,269.8 412.1,251.6 389.3,165.4 374,107.6 168,162.1 141.2,169.2 -57.6,221.9 -17.8,372 
					-3.1,427.5 4.7,457.2 436.3,342.9 429.2,316.1 				"/>
			</g>
		</g>
		<g>
			<defs>
				<path id="SVGID_59_" d="M124.3,131.3c3.6,0,7,1.5,9.5,4.2l11-2.9c-6.3-11.2-20.6-15.2-31.9-8.7s-15.1,20.6-8.7,31.9
					c6.3,11.2,20.6,15.1,31.9,8.7c4.1-2.4,7.4-6,9.5-10.2l-11-2.8c-2.4,3.4-6.2,5.4-10.3,5.3c-7,0-12.2-4.9-12.2-12.7
					C112.3,136.6,116.9,131.3,124.3,131.3z"/>
			</defs>
			<clipPath id="SVGID_60_">
				<use xlink:href="#SVGID_59_"  style="overflow:visible;"/>
			</clipPath>
			<g class="st39">
				<polygon class="st8" points="389.3,165.4 412.1,251.6 412.1,165.4 				"/>
				<polygon class="st9" points="-57.6,221.9 141.2,169.2 168,162.1 60.9,55 60,54 65.8,48.2 -106.3,110.2 -48.4,697.6 -3.1,681.4 
					-3.1,427.5 -17.8,372 				"/>
				<polygon class="st10" points="60.9,55 168,162.1 374,107.6 389.3,165.4 412.1,165.4 412.1,251.6 416.9,269.8 429.2,316.1 
					547.8,197.6 232.1,-118.1 65.8,48.2 60,54 				"/>
				<polygon class="st2" points="416.9,269.8 412.1,251.6 389.3,165.4 374,107.6 168,162.1 141.2,169.2 -57.6,221.9 -17.8,372 
					-3.1,427.5 4.7,457.2 436.3,342.9 429.2,316.1 				"/>
			</g>
		</g>
		<g>
			<defs>
				<path id="SVGID_61_" d="M169,121.6h-10.8v45.1H169v-14.9l3.8-3.8l13.6,18.8h12.8L180,140.7l19.2-19.2H186l-11,10.8
					c-4.6,4.6-5.8,6.1-6,6.1l0,0c0,0,0.1-2.2,0.1-9.7L169,121.6L169,121.6L169,121.6z"/>
			</defs>
			<clipPath id="SVGID_62_">
				<use xlink:href="#SVGID_61_"  style="overflow:visible;"/>
			</clipPath>
			<g class="st40">
				<polygon class="st8" points="389.3,165.4 412.1,251.6 412.1,165.4 				"/>
				<polygon class="st9" points="-57.6,221.9 141.2,169.2 141.2,169.2 60.9,55 60,54 65.8,48.2 -106.3,110.2 -48.4,697.6 
					-3.1,681.4 -3.1,427.5 -17.8,372 				"/>
				<polygon class="st10" points="60.9,55 141.2,169.2 374,107.6 389.3,165.4 412.1,165.4 412.1,251.6 416.9,269.8 429.2,316.1 
					547.8,197.6 232.1,-118.1 65.8,48.2 60,54 				"/>
				<polygon class="st2" points="416.9,269.8 412.1,251.6 389.3,165.4 357.7,111.9 135.5,170.7 141.2,169.2 -57.6,221.9 -17.8,372 
					-3.1,427.5 4.7,457.2 436.3,342.9 429.2,316.1 				"/>
			</g>
		</g>
		<g>
			<defs>
				<path id="SVGID_63_" d="M247,137c0-9.3-6.9-15.5-18.3-15.5h-16.8v45.1h10.8V152h5.6l8.3,14.7h12.2L238.8,150
					C243.9,147.8,247.2,142.6,247,137z M230.3,142.3h-7.5v-10.7h7.5c2.9,0,5.4,2.4,5.4,5.3c0,2.9-2.4,5.4-5.3,5.4
					C230.3,142.3,230.3,142.3,230.3,142.3L230.3,142.3z"/>
			</defs>
			<clipPath id="SVGID_64_">
				<use xlink:href="#SVGID_63_"  style="overflow:visible;"/>
			</clipPath>
			<g class="st41">
				<polygon class="st8" points="389.3,165.4 412.1,251.6 412.1,165.4 				"/>
				<polygon class="st9" points="-57.6,221.9 141.2,169.2 168,162.1 60.9,55 60,54 65.8,48.2 -106.3,110.2 -48.4,697.6 -3.1,681.4 
					-3.1,427.5 -17.8,372 				"/>
				<polygon class="st10" points="60.9,55 168,162.1 374,107.6 389.3,165.4 412.1,165.4 412.1,251.6 416.9,269.8 429.2,316.1 
					547.8,197.6 232.1,-118.1 65.8,48.2 60,54 				"/>
				<polygon class="st2" points="416.9,269.8 412.1,251.6 389.3,165.4 374,107.6 168,162.1 141.2,169.2 -57.6,221.9 -17.8,372 
					-3.1,427.5 4.7,457.2 436.3,342.9 429.2,316.1 				"/>
			</g>
		</g>
		<g>
			<defs>
				<path id="SVGID_65_" d="M289.2,121.6v24.9c0,7.8-3.2,11.1-9.1,11.1s-9.1-3.3-9.1-11.1v-24.9h-10.8v25.1c0,13.5,7.9,20.9,20,20.9
					c11.9,0,20-7.4,20-20.9v-25.1H289.2z"/>
			</defs>
			<clipPath id="SVGID_66_">
				<use xlink:href="#SVGID_65_"  style="overflow:visible;"/>
			</clipPath>
			<g class="st42">
				<polygon class="st8" points="389.3,165.4 412.1,251.6 412.1,165.4 				"/>
				<polygon class="st9" points="-57.6,221.9 141.2,169.2 168,162.1 60.9,55 60,54 65.8,48.2 -106.3,110.2 -48.4,697.6 -3.1,681.4 
					-3.1,427.5 -17.8,372 				"/>
				<polygon class="st10" points="60.9,55 168,162.1 374,107.6 389.3,165.4 412.1,165.4 412.1,251.6 416.9,269.8 429.2,316.1 
					547.8,197.6 232.1,-118.1 65.8,48.2 60,54 				"/>
				<polygon class="st2" points="416.9,269.8 412.1,251.6 389.3,165.4 374,107.6 168,162.1 141.2,169.2 -57.6,221.9 -17.8,372 
					-3.1,427.5 4.7,457.2 436.3,342.9 429.2,316.1 				"/>
			</g>
		</g>
	</g>
</g>
<g id="Layer_9" class="st0">
	<circle class="st43" cx="150" cy="150" r="150"/>
</g>
<g id="Layer_2" class="st0">
	
		<image style="display:inline;overflow:visible;" width="400" height="700" xlink:href="../palette.png"  transform="matrix(0.245 0 0 0.245 -120.993 156.2622)">
	</image>
</g>
</svg>
