<?xml version="1.0" encoding="utf-8"?>
<!-- Generator: Adobe Illustrator 23.0.1, SVG Export Plug-In . SVG Version: 6.00 Build 0)  -->
<svg version="1.1" xmlns="http://www.w3.org/2000/svg" xmlns:xlink="http://www.w3.org/1999/xlink" x="0px" y="0px"
	 viewBox="0 0 400 400" style="enable-background:new 0 0 400 400;" xml:space="preserve">
<style type="text/css">
	.st0{fill:none;}
	.st1{fill:#F1BA43;}
	.st2{fill:none;stroke:#C85151;stroke-width:20;stroke-miterlimit:10;}
	.st3{fill:none;stroke:#F1BA43;stroke-width:20;stroke-miterlimit:10;}
	.st4{fill:none;stroke:#4FAB5F;stroke-width:20;stroke-miterlimit:10;}
	.st5{fill:url(#_x36__dpi_40_x25__5);}
	.st6{display:none;}
	.st7{display:inline;fill:url(#_x36__dpi_40_x25__5);}
	.st8{display:inline;}
	.st9{fill:none;stroke:#FFFFFF;stroke-width:15;stroke-miterlimit:10;}
	.st10{display:inline;fill:#FFFFFF;}
	.st11{fill:none;stroke:#FFFFFF;stroke-width:40;stroke-linecap:round;stroke-miterlimit:10;}
	.st12{display:inline;fill:none;stroke:#FFFFFF;stroke-width:5;stroke-linecap:round;stroke-miterlimit:10;}
	.st13{display:inline;fill:url(#_x31_0_dpi_30_x25__4);}
	.st14{fill:none;stroke:#FFFFFF;stroke-width:10;stroke-miterlimit:10;}
</style>
<pattern  width="28.8" height="28.8" patternUnits="userSpaceOnUse" id="_x31_0_dpi_30_x25__4" viewBox="2.2 -31 28.8 28.8" style="overflow:visible;">
	<g>
		<rect x="2.2" y="-31" class="st0" width="28.8" height="28.8"/>
		<g>
			<path class="st1" d="M31,0c1.2,0,2.2-1,2.2-2.2c0-1.2-1-2.2-2.2-2.2c-1.2,0-2.2,1-2.2,2.2C28.8-1,29.8,0,31,0z"/>
			<path class="st1" d="M16.6,0c1.2,0,2.2-1,2.2-2.2c0-1.2-1-2.2-2.2-2.2c-1.2,0-2.2,1-2.2,2.2C14.4-1,15.4,0,16.6,0z"/>
			<path class="st1" d="M31-14.4c1.2,0,2.2-1,2.2-2.2c0-1.2-1-2.2-2.2-2.2c-1.2,0-2.2,1-2.2,2.2C28.8-15.4,29.8-14.4,31-14.4z"/>
			<path class="st1" d="M16.6-14.4c1.2,0,2.2-1,2.2-2.2c0-1.2-1-2.2-2.2-2.2c-1.2,0-2.2,1-2.2,2.2C14.4-15.4,15.4-14.4,16.6-14.4z"
				/>
			<path class="st1" d="M9.4-7.2c1.2,0,2.2-1,2.2-2.2c0-1.2-1-2.2-2.2-2.2c-1.2,0-2.2,1-2.2,2.2C7.2-8.2,8.2-7.2,9.4-7.2z"/>
			<path class="st1" d="M23.8-7.2c1.2,0,2.2-1,2.2-2.2c0-1.2-1-2.2-2.2-2.2c-1.2,0-2.2,1-2.2,2.2C21.6-8.2,22.6-7.2,23.8-7.2z"/>
			<path class="st1" d="M9.4-21.6c1.2,0,2.2-1,2.2-2.2c0-1.2-1-2.2-2.2-2.2c-1.2,0-2.2,1-2.2,2.2C7.2-22.6,8.2-21.6,9.4-21.6z"/>
			<path class="st1" d="M23.8-21.6c1.2,0,2.2-1,2.2-2.2c0-1.2-1-2.2-2.2-2.2c-1.2,0-2.2,1-2.2,2.2C21.6-22.6,22.6-21.6,23.8-21.6z"
				/>
		</g>
		<g>
			<path class="st1" d="M2.2,0c1.2,0,2.2-1,2.2-2.2c0-1.2-1-2.2-2.2-2.2C1-4.3,0-3.4,0-2.2C0-1,1,0,2.2,0z"/>
			<path class="st1" d="M2.2-14.4c1.2,0,2.2-1,2.2-2.2c0-1.2-1-2.2-2.2-2.2c-1.2,0-2.2,1-2.2,2.2C0-15.4,1-14.4,2.2-14.4z"/>
		</g>
		<g>
			<path class="st1" d="M31-28.8c1.2,0,2.2-1,2.2-2.2c0-1.2-1-2.2-2.2-2.2c-1.2,0-2.2,1-2.2,2.2C28.8-29.8,29.8-28.8,31-28.8z"/>
			<path class="st1" d="M16.6-28.8c1.2,0,2.2-1,2.2-2.2c0-1.2-1-2.2-2.2-2.2c-1.2,0-2.2,1-2.2,2.2C14.4-29.8,15.4-28.8,16.6-28.8z"
				/>
		</g>
		<g>
			<path class="st1" d="M2.2-28.8c1.2,0,2.2-1,2.2-2.2c0-1.2-1-2.2-2.2-2.2C1-33.1,0-32.2,0-31C0-29.8,1-28.8,2.2-28.8z"/>
		</g>
	</g>
</pattern>
<pattern  width="48" height="48" patternUnits="userSpaceOnUse" id="_x36__dpi_40_x25__5" viewBox="4.8 -52.8 48 48" style="overflow:visible;">
	<g>
		<rect x="4.8" y="-52.8" class="st0" width="48" height="48"/>
		<g>
			<path class="st1" d="M28.8,0c2.7,0,4.8-2.1,4.8-4.8c0-2.7-2.1-4.8-4.8-4.8c-2.7,0-4.8,2.2-4.8,4.8C24-2.1,26.1,0,28.8,0z"/>
			<path class="st1" d="M52.8,0c2.7,0,4.8-2.1,4.8-4.8c0-2.7-2.1-4.8-4.8-4.8c-2.7,0-4.8,2.2-4.8,4.8C48-2.1,50.1,0,52.8,0z"/>
			<path class="st1" d="M28.8-24c2.7,0,4.8-2.1,4.8-4.8c0-2.7-2.1-4.8-4.8-4.8c-2.7,0-4.8,2.1-4.8,4.8C24-26.1,26.1-24,28.8-24z"/>
			<path class="st1" d="M52.8-24c2.7,0,4.8-2.1,4.8-4.8c0-2.7-2.1-4.8-4.8-4.8c-2.7,0-4.8,2.1-4.8,4.8C48-26.1,50.1-24,52.8-24z"/>
			<path class="st1" d="M40.8-12c2.7,0,4.8-2.1,4.8-4.8c0-2.7-2.1-4.8-4.8-4.8c-2.7,0-4.8,2.2-4.8,4.8C36-14.1,38.1-12,40.8-12z"/>
			<path class="st1" d="M16.8-12c2.7,0,4.8-2.1,4.8-4.8c0-2.7-2.1-4.8-4.8-4.8c-2.7,0-4.8,2.2-4.8,4.8C12-14.1,14.1-12,16.8-12z"/>
			<path class="st1" d="M40.8-36c2.7,0,4.8-2.1,4.8-4.8c0-2.7-2.1-4.8-4.8-4.8c-2.7,0-4.8,2.1-4.8,4.8C36-38.1,38.1-36,40.8-36z"/>
			<path class="st1" d="M16.8-36c2.7,0,4.8-2.1,4.8-4.8c0-2.7-2.1-4.8-4.8-4.8c-2.7,0-4.8,2.1-4.8,4.8C12-38.1,14.1-36,16.8-36z"/>
		</g>
		<g>
			<path class="st1" d="M4.8,0c2.7,0,4.8-2.1,4.8-4.8c0-2.7-2.1-4.8-4.8-4.8C2.1-9.6,0-7.5,0-4.8C0-2.1,2.1,0,4.8,0z"/>
			<path class="st1" d="M4.8-24c2.7,0,4.8-2.1,4.8-4.8c0-2.7-2.1-4.8-4.8-4.8c-2.7,0-4.8,2.1-4.8,4.8C0-26.1,2.1-24,4.8-24z"/>
		</g>
		<g>
			<path class="st1" d="M28.8-48c2.7,0,4.8-2.1,4.8-4.8c0-2.7-2.1-4.8-4.8-4.8c-2.7,0-4.8,2.2-4.8,4.8C24-50.1,26.1-48,28.8-48z"/>
			<path class="st1" d="M52.8-48c2.7,0,4.8-2.1,4.8-4.8c0-2.7-2.1-4.8-4.8-4.8c-2.7,0-4.8,2.2-4.8,4.8C48-50.1,50.1-48,52.8-48z"/>
		</g>
		<g>
			<path class="st1" d="M4.8-48c2.7,0,4.8-2.1,4.8-4.8c0-2.7-2.1-4.8-4.8-4.8c-2.7,0-4.8,2.2-4.8,4.8C0-50.1,2.1-48,4.8-48z"/>
		</g>
	</g>
</pattern>
<g id="guides_x2F_ref">
	
		<image style="display:none;overflow:visible;" width="2382" height="1670" xlink:href="web/web_home.png"  transform="matrix(0.5 0 0 0.5 -911.5723 -468.0444)">
	</image>
	<path class="st2" d="M-124.5-95.8L-124.5-95.8c-11,0-20,8.9-20,20v0c0,11,8.9,20,20,20h0c11,0,20-8.9,20-20v0
		C-104.5-86.8-113.4-95.8-124.5-95.8z"/>
	<path class="st3" d="M-74.1-95.8L-74.1-95.8c-11,0-20,8.9-20,20v0c0,11,8.9,20,20,20h0c11,0,20-8.9,20-20v0
		C-54.2-86.8-63.1-95.8-74.1-95.8z"/>
	<path class="st4" d="M-174.8-95.8L-174.8-95.8c-11,0-20,8.9-20,20v0c0,11,8.9,20,20,20h0c11,0,20-8.9,20-20v0
		C-154.8-86.8-163.8-95.8-174.8-95.8z"/>
</g>
<g id="Layer_10">
	<circle class="st5" cx="199.8" cy="199.9" r="180"/>
</g>
<g id="Layer_9" class="st6">
	<rect x="19.7" y="19.9" class="st7" width="360.1" height="360.1"/>
</g>
<g id="Layer_8" class="st6">
</g>
<g id="Layer_7" class="st6">
	<g class="st8">
		<circle class="st9" cx="200.5" cy="46.5" r="26.6"/>
		<circle class="st9" cx="200" cy="312.2" r="67.8"/>
		<line class="st9" x1="200.5" y1="73.1" x2="200.5" y2="244.4"/>
	</g>
	<circle class="st10" cx="200" cy="312.2" r="15.2"/>
</g>
<g id="Layer_6" class="st6">
	<g class="st8">
		<line class="st11" x1="43" y1="43.1" x2="356.6" y2="356.7"/>
		<line class="st11" x1="356.6" y1="43.1" x2="43" y2="356.7"/>
	</g>
</g>
<g id="Layer_5" class="st6">
	<line class="st12" x1="19.7" y1="200" x2="379.8" y2="200"/>
</g>
<g id="Layer_4" class="st6">
	<rect x="19.7" y="19.9" class="st13" width="360.1" height="360.1"/>
</g>
<g id="Layer_3" class="st6">
	<circle class="st13" cx="199.8" cy="199.9" r="180"/>
</g>
<g id="target-thick" class="st6">
	<circle class="st10" cx="200" cy="200" r="24.1"/>
	<g class="st8">
		<circle class="st14" cx="200" cy="200" r="46.5"/>
		<circle class="st14" cx="200" cy="200" r="117.8"/>
		<circle class="st14" cx="200" cy="200" r="179.8"/>
	</g>
</g>
</svg>
