<?xml version="1.0" encoding="utf-8"?>
<!-- Generator: Adobe Illustrator 23.0.1, SVG Export Plug-In . SVG Version: 6.00 Build 0)  -->
<svg version="1.1" id="Layer_1" xmlns="http://www.w3.org/2000/svg" xmlns:xlink="http://www.w3.org/1999/xlink" x="0px" y="0px"
	 viewBox="0 0 400 400" style="enable-background:new 0 0 400 400;" xml:space="preserve">
<style type="text/css">
	.st0{fill:none;}
	.st1{fill:#F1BA43;}
	.st2{fill:none;stroke:#C85151;stroke-width:20;stroke-miterlimit:10;}
	.st3{fill:none;stroke:#F1BA43;stroke-width:20;stroke-miterlimit:10;}
	.st4{fill:none;stroke:#4FAB5F;stroke-width:20;stroke-miterlimit:10;}
	.st5{fill:none;stroke:#F1BA43;stroke-width:15;stroke-miterlimit:10;}
	.st6{display:none;}
	.st7{display:inline;}
	.st8{fill:none;stroke:#C85151;stroke-width:30;stroke-linecap:round;stroke-miterlimit:10;}
	.st9{display:inline;fill:none;stroke:#FFFFFF;stroke-width:5;stroke-linecap:round;stroke-miterlimit:10;}
	.st10{display:inline;fill:url(#SVGID_3_);}
	.st11{display:inline;fill:url(#SVGID_4_);}
	.st12{display:inline;fill:#FFFFFF;}
	.st13{fill:none;stroke:#FFFFFF;stroke-width:10;stroke-miterlimit:10;}
</style>
<pattern  y="400" width="28.8" height="28.8" patternUnits="userSpaceOnUse" id="SVGID_1_" viewBox="2.2 -31 28.8 28.8" style="overflow:visible;">
	<g>
		<rect x="2.2" y="-31" class="st0" width="28.8" height="28.8"/>
		<g>
			<rect x="2.2" y="-31" class="st0" width="28.8" height="28.8"/>
			<g>
				<rect x="2.2" y="-31" class="st0" width="28.8" height="28.8"/>
				<g>
					<path class="st1" d="M31,0c1.2,0,2.2-1,2.2-2.2s-1-2.2-2.2-2.2s-2.2,1-2.2,2.2S29.8,0,31,0z"/>
					<path class="st1" d="M16.6,0c1.2,0,2.2-1,2.2-2.2s-1-2.2-2.2-2.2s-2.2,1-2.2,2.2C14.4-1,15.4,0,16.6,0z"/>
					<path class="st1" d="M31-14.4c1.2,0,2.2-1,2.2-2.2s-1-2.2-2.2-2.2s-2.2,1-2.2,2.2S29.8-14.4,31-14.4z"/>
					<path class="st1" d="M16.6-14.4c1.2,0,2.2-1,2.2-2.2s-1-2.2-2.2-2.2s-2.2,1-2.2,2.2C14.4-15.4,15.4-14.4,16.6-14.4z"/>
					<path class="st1" d="M9.4-7.2c1.2,0,2.2-1,2.2-2.2s-1-2.2-2.2-2.2s-2.2,1-2.2,2.2S8.2-7.2,9.4-7.2z"/>
					<path class="st1" d="M23.8-7.2c1.2,0,2.2-1,2.2-2.2s-1-2.2-2.2-2.2s-2.2,1-2.2,2.2C21.6-8.2,22.6-7.2,23.8-7.2z"/>
					<path class="st1" d="M9.4-21.6c1.2,0,2.2-1,2.2-2.2c0-1.2-1-2.2-2.2-2.2s-2.2,1-2.2,2.2C7.2-22.6,8.2-21.6,9.4-21.6z"/>
					<path class="st1" d="M23.8-21.6c1.2,0,2.2-1,2.2-2.2c0-1.2-1-2.2-2.2-2.2s-2.2,1-2.2,2.2C21.6-22.6,22.6-21.6,23.8-21.6z"/>
				</g>
				<g>
					<path class="st1" d="M2.2,0c1.2,0,2.2-1,2.2-2.2s-1-2.2-2.2-2.2C1-4.3,0-3.4,0-2.2S1,0,2.2,0z"/>
					<path class="st1" d="M2.2-14.4c1.2,0,2.2-1,2.2-2.2s-1-2.2-2.2-2.2S0-17.8,0-16.6S1-14.4,2.2-14.4z"/>
				</g>
				<g>
					<path class="st1" d="M31-28.8c1.2,0,2.2-1,2.2-2.2c0-1.2-1-2.2-2.2-2.2s-2.2,1-2.2,2.2C28.8-29.8,29.8-28.8,31-28.8z"/>
					<path class="st1" d="M16.6-28.8c1.2,0,2.2-1,2.2-2.2c0-1.2-1-2.2-2.2-2.2s-2.2,1-2.2,2.2C14.4-29.8,15.4-28.8,16.6-28.8z"/>
				</g>
				<g>
					<path class="st1" d="M2.2-28.8c1.2,0,2.2-1,2.2-2.2c0-1.2-1-2.2-2.2-2.2C1-33.1,0-32.2,0-31C0-29.8,1-28.8,2.2-28.8z"/>
				</g>
			</g>
		</g>
	</g>
</pattern>
<pattern  y="400" width="28.8" height="28.8" patternUnits="userSpaceOnUse" id="SVGID_2_" viewBox="2.2 -31 28.8 28.8" style="overflow:visible;">
	<g>
		<rect x="2.2" y="-31" class="st0" width="28.8" height="28.8"/>
		<g>
			<rect x="2.2" y="-31" class="st0" width="28.8" height="28.8"/>
			<g>
				<rect x="2.2" y="-31" class="st0" width="28.8" height="28.8"/>
				<g>
					<path class="st1" d="M31,0c1.2,0,2.2-1,2.2-2.2s-1-2.2-2.2-2.2s-2.2,1-2.2,2.2S29.8,0,31,0z"/>
					<path class="st1" d="M16.6,0c1.2,0,2.2-1,2.2-2.2s-1-2.2-2.2-2.2s-2.2,1-2.2,2.2C14.4-1,15.4,0,16.6,0z"/>
					<path class="st1" d="M31-14.4c1.2,0,2.2-1,2.2-2.2s-1-2.2-2.2-2.2s-2.2,1-2.2,2.2S29.8-14.4,31-14.4z"/>
					<path class="st1" d="M16.6-14.4c1.2,0,2.2-1,2.2-2.2s-1-2.2-2.2-2.2s-2.2,1-2.2,2.2C14.4-15.4,15.4-14.4,16.6-14.4z"/>
					<path class="st1" d="M9.4-7.2c1.2,0,2.2-1,2.2-2.2s-1-2.2-2.2-2.2s-2.2,1-2.2,2.2S8.2-7.2,9.4-7.2z"/>
					<path class="st1" d="M23.8-7.2c1.2,0,2.2-1,2.2-2.2s-1-2.2-2.2-2.2s-2.2,1-2.2,2.2C21.6-8.2,22.6-7.2,23.8-7.2z"/>
					<path class="st1" d="M9.4-21.6c1.2,0,2.2-1,2.2-2.2c0-1.2-1-2.2-2.2-2.2s-2.2,1-2.2,2.2C7.2-22.6,8.2-21.6,9.4-21.6z"/>
					<path class="st1" d="M23.8-21.6c1.2,0,2.2-1,2.2-2.2c0-1.2-1-2.2-2.2-2.2s-2.2,1-2.2,2.2C21.6-22.6,22.6-21.6,23.8-21.6z"/>
				</g>
				<g>
					<path class="st1" d="M2.2,0c1.2,0,2.2-1,2.2-2.2s-1-2.2-2.2-2.2C1-4.3,0-3.4,0-2.2S1,0,2.2,0z"/>
					<path class="st1" d="M2.2-14.4c1.2,0,2.2-1,2.2-2.2s-1-2.2-2.2-2.2S0-17.8,0-16.6S1-14.4,2.2-14.4z"/>
				</g>
				<g>
					<path class="st1" d="M31-28.8c1.2,0,2.2-1,2.2-2.2c0-1.2-1-2.2-2.2-2.2s-2.2,1-2.2,2.2C28.8-29.8,29.8-28.8,31-28.8z"/>
					<path class="st1" d="M16.6-28.8c1.2,0,2.2-1,2.2-2.2c0-1.2-1-2.2-2.2-2.2s-2.2,1-2.2,2.2C14.4-29.8,15.4-28.8,16.6-28.8z"/>
				</g>
				<g>
					<path class="st1" d="M2.2-28.8c1.2,0,2.2-1,2.2-2.2c0-1.2-1-2.2-2.2-2.2C1-33.1,0-32.2,0-31C0-29.8,1-28.8,2.2-28.8z"/>
				</g>
			</g>
		</g>
	</g>
</pattern>
<g id="guides_x2F_ref">
	<path class="st2" d="M-124.5-95.8L-124.5-95.8c-11,0-20,8.9-20,20l0,0c0,11,8.9,20,20,20l0,0c11,0,20-8.9,20-20l0,0
		C-104.5-86.8-113.4-95.8-124.5-95.8z"/>
	<path class="st3" d="M-74.1-95.8L-74.1-95.8c-11,0-20,8.9-20,20l0,0c0,11,8.9,20,20,20l0,0c11,0,20-8.9,20-20l0,0
		C-54.2-86.8-63.1-95.8-74.1-95.8z"/>
	<path class="st4" d="M-174.8-95.8L-174.8-95.8c-11,0-20,8.9-20,20l0,0c0,11,8.9,20,20,20l0,0c11,0,20-8.9,20-20l0,0
		C-154.8-86.8-163.8-95.8-174.8-95.8z"/>
</g>
<g>
	<circle class="st5" cx="200.5" cy="46.5" r="26.6"/>
	<circle class="st5" cx="200" cy="312.2" r="67.8"/>
	<line class="st5" x1="200.5" y1="73.1" x2="200.5" y2="244.4"/>
</g>
<circle class="st1" cx="200" cy="312.2" r="15.2"/>
<g id="Layer_6" class="st6">
	<g class="st7">
		<line class="st8" x1="19.7" y1="19.9" x2="379.8" y2="380"/>
		<line class="st8" x1="379.8" y1="19.9" x2="19.7" y2="380"/>
	</g>
</g>
<g id="Layer_5" class="st6">
	<line class="st9" x1="19.7" y1="200" x2="379.8" y2="200"/>
</g>
<g id="Layer_4" class="st6">
	<pattern  id="SVGID_3_" xlink:href="#SVGID_1_" patternTransform="matrix(1 0 0 1 -4.4 16446)">
	</pattern>
	<rect x="19.7" y="19.9" class="st10" width="360.1" height="360.1"/>
</g>
<g id="Layer_3" class="st6">
	<pattern  id="SVGID_4_" xlink:href="#SVGID_2_" patternTransform="matrix(1 0 0 1 -4.4 16446)">
	</pattern>
	<circle class="st11" cx="199.8" cy="199.9" r="180"/>
</g>
<g id="target-thick" class="st6">
	<circle class="st12" cx="200" cy="200" r="24.1"/>
	<g class="st7">
		<circle class="st13" cx="200" cy="200" r="46.5"/>
		<circle class="st13" cx="200" cy="200" r="117.8"/>
		<circle class="st13" cx="200" cy="200" r="179.8"/>
	</g>
</g>
</svg>
