<?xml version="1.0" encoding="utf-8"?>
<!-- Generator: Adobe Illustrator 23.0.1, SVG Export Plug-In . SVG Version: 6.00 Build 0)  -->
<svg version="1.1" xmlns="http://www.w3.org/2000/svg" xmlns:xlink="http://www.w3.org/1999/xlink" x="0px" y="0px"
	 viewBox="0 0 400 400" style="enable-background:new 0 0 400 400;" xml:space="preserve">
<style type="text/css">
	.st0{display:none;}
	.st1{display:inline;fill:none;stroke:#C85151;stroke-width:20;stroke-miterlimit:10;}
	.st2{display:inline;fill:none;stroke:#F1BA43;stroke-width:20;stroke-miterlimit:10;}
	.st3{display:inline;fill:none;stroke:#4FAB5F;stroke-width:20;stroke-miterlimit:10;}
	.st4{display:inline;fill:none;stroke:#FFFFFF;stroke-width:20;stroke-miterlimit:10;}
	.st5{fill:#FFFFFF;}
	.st6{fill:none;stroke:#FFFFFF;stroke-width:20;stroke-miterlimit:10;}
</style>
<g id="guides_x2F_ref" class="st0">
	
		<image style="overflow:visible;" width="2382" height="1670" xlink:href="web/web_home.png"  transform="matrix(0.5 0 0 0.5 -911.5723 -468.0444)">
	</image>
	<path class="st1" d="M-124.5-95.8L-124.5-95.8c-11,0-20,8.9-20,20v0c0,11,8.9,20,20,20h0c11,0,20-8.9,20-20v0
		C-104.5-86.8-113.4-95.8-124.5-95.8z"/>
	<path class="st2" d="M-74.1-95.8L-74.1-95.8c-11,0-20,8.9-20,20v0c0,11,8.9,20,20,20h0c11,0,20-8.9,20-20v0
		C-54.2-86.8-63.1-95.8-74.1-95.8z"/>
	<path class="st3" d="M-174.8-95.8L-174.8-95.8c-11,0-20,8.9-20,20v0c0,11,8.9,20,20,20h0c11,0,20-8.9,20-20v0
		C-154.8-86.8-163.8-95.8-174.8-95.8z"/>
</g>
<g id="Layer_3" class="st0">
	<circle class="st4" cx="199.8" cy="199.9" r="180"/>
</g>
<g id="target-thick">
	<circle class="st5" cx="200" cy="200" r="24.1"/>
	<g>
		<circle class="st6" cx="200" cy="200" r="65.8"/>
		<circle class="st6" cx="200" cy="200" r="123.4"/>
		<circle class="st6" cx="200" cy="200" r="179.8"/>
	</g>
</g>
</svg>
