<?xml version="1.0" encoding="utf-8"?>
<!-- Generator: Adobe Illustrator 23.0.1, SVG Export Plug-In . SVG Version: 6.00 Build 0)  -->
<svg version="1.1" id="Layer_1" xmlns="http://www.w3.org/2000/svg" xmlns:xlink="http://www.w3.org/1999/xlink" x="0px" y="0px"
	 viewBox="0 0 400 400" style="enable-background:new 0 0 400 400;" xml:space="preserve">
<style type="text/css">
	.st0{fill:none;}
	.st1{fill:#F1BA43;}
	.st2{fill:none;stroke:#C85151;stroke-width:20;stroke-miterlimit:10;}
	.st3{fill:none;stroke:#F1BA43;stroke-width:20;stroke-miterlimit:10;}
	.st4{fill:none;stroke:#4FAB5F;stroke-width:20;stroke-miterlimit:10;}
	.st5{display:none;}
	.st6{display:inline;fill:url(#SVGID_1_);}
	.st7{fill:none;stroke:#C85151;stroke-width:10;stroke-miterlimit:10;}
</style>
<pattern  y="400" width="28.8" height="28.8" patternUnits="userSpaceOnUse" id="_x31_0_dpi_30_x25__4" viewBox="2.2 -31 28.8 28.8" style="overflow:visible;">
	<g>
		<rect x="2.2" y="-31" class="st0" width="28.8" height="28.8"/>
		<g>
			<rect x="2.2" y="-31" class="st0" width="28.8" height="28.8"/>
			<g>
				<path class="st1" d="M31-33.2c1.2,0,2.2,1,2.2,2.2c0,1.2-1,2.2-2.2,2.2s-2.2-1-2.2-2.2C28.8-32.2,29.8-33.2,31-33.2z"/>
				<path class="st1" d="M16.6-33.2c1.2,0,2.2,1,2.2,2.2c0,1.2-1,2.2-2.2,2.2s-2.2-1-2.2-2.2C14.4-32.2,15.4-33.2,16.6-33.2z"/>
				<path class="st1" d="M31-18.8c1.2,0,2.2,1,2.2,2.2s-1,2.2-2.2,2.2s-2.2-1-2.2-2.2S29.8-18.8,31-18.8z"/>
				<path class="st1" d="M16.6-18.8c1.2,0,2.2,1,2.2,2.2s-1,2.2-2.2,2.2s-2.2-1-2.2-2.2C14.4-17.8,15.4-18.8,16.6-18.8z"/>
				<path class="st1" d="M9.4-26c1.2,0,2.2,1,2.2,2.2s-1,2.2-2.2,2.2s-2.2-1-2.2-2.2S8.2-26,9.4-26z"/>
				<path class="st1" d="M23.8-26c1.2,0,2.2,1,2.2,2.2s-1,2.2-2.2,2.2s-2.2-1-2.2-2.2C21.6-25,22.6-26,23.8-26z"/>
				<path class="st1" d="M9.4-11.6c1.2,0,2.2,1,2.2,2.2s-1,2.2-2.2,2.2s-2.2-1-2.2-2.2S8.2-11.6,9.4-11.6z"/>
				<path class="st1" d="M23.8-11.6c1.2,0,2.2,1,2.2,2.2s-1,2.2-2.2,2.2s-2.2-1-2.2-2.2C21.6-10.6,22.6-11.6,23.8-11.6z"/>
			</g>
			<g>
				<path class="st1" d="M2.2-33.2c1.2,0,2.2,1,2.2,2.2c0,1.2-1,2.2-2.2,2.2C1-28.9,0-29.8,0-31C0-32.2,1-33.2,2.2-33.2z"/>
				<path class="st1" d="M2.2-18.8c1.2,0,2.2,1,2.2,2.2s-1,2.2-2.2,2.2S0-15.4,0-16.6S1-18.8,2.2-18.8z"/>
			</g>
			<g>
				<path class="st1" d="M31-4.4c1.2,0,2.2,1,2.2,2.2S32.2,0,31,0s-2.2-1-2.2-2.2S29.8-4.4,31-4.4z"/>
				<path class="st1" d="M16.6-4.4c1.2,0,2.2,1,2.2,2.2S17.8,0,16.6,0s-2.2-1-2.2-2.2C14.4-3.4,15.4-4.4,16.6-4.4z"/>
			</g>
			<g>
				<path class="st1" d="M2.2-4.4c1.2,0,2.2,1,2.2,2.2S3.4,0,2.2,0C1-0.1,0-1,0-2.2S1-4.4,2.2-4.4z"/>
			</g>
		</g>
	</g>
</pattern>
<g id="guides_x2F_ref">
	<path class="st2" d="M-124.5-95.8L-124.5-95.8c-11,0-20,8.9-20,20l0,0c0,11,8.9,20,20,20l0,0c11,0,20-8.9,20-20l0,0
		C-104.5-86.8-113.4-95.8-124.5-95.8z"/>
	<path class="st3" d="M-74.1-95.8L-74.1-95.8c-11,0-20,8.9-20,20l0,0c0,11,8.9,20,20,20l0,0c11,0,20-8.9,20-20l0,0
		C-54.2-86.8-63.1-95.8-74.1-95.8z"/>
	<path class="st4" d="M-174.8-95.8L-174.8-95.8c-11,0-20,8.9-20,20l0,0c0,11,8.9,20,20,20l0,0c11,0,20-8.9,20-20l0,0
		C-154.8-86.8-163.8-95.8-174.8-95.8z"/>
</g>
<g id="Layer_3" class="st5">
	<pattern  id="SVGID_1_" xlink:href="#_x31_0_dpi_30_x25__4" patternTransform="matrix(1 0 0 -1 -2.2 -16477)">
	</pattern>
	<circle class="st6" cx="199.8" cy="199.9" r="180"/>
</g>
<circle class="st7" cx="200" cy="200" r="46.5"/>
<circle class="st7" cx="200" cy="200" r="117.8"/>
<circle class="st7" cx="200" cy="200" r="179.8"/>
</svg>
